<svg version="1.1" id="Layer_1" xmlns="http://www.w3.org/2000/svg" xmlns:xlink="http://www.w3.org/1999/xlink" x="0px" y="0px"
	 width="100%" viewBox="0 0 4096 4096" enable-background="new 0 0 4096 4096" xml:space="preserve">
<path fill="#FFFFFF" opacity="1.000000" stroke="none" 
	d="
M2296.000000,4098.000000 
	C1530.666626,4098.000000 766.333313,4098.000000 2.000000,4098.000000 
	C2.000000,2732.666748 2.000000,1367.333374 2.000000,2.000000 
	C1367.333374,2.000000 2732.666748,2.000000 4098.000000,2.000000 
	C4098.000000,1367.333374 4098.000000,2732.666748 4098.000000,4098.000000 
	C3497.666748,4098.000000 2897.333252,4098.000000 2296.000000,4098.000000 
M2977.563721,2579.755127 
	C2977.179199,2579.523438 2976.794434,2579.291992 2976.412354,2577.529053 
	C2992.861084,2530.332031 3012.836426,2484.619873 3035.179932,2439.962158 
	C3110.482666,2289.454834 3200.608643,2148.168457 3301.436279,2013.599731 
	C3323.810059,1983.738647 3346.876465,1954.395142 3374.349365,1927.796143 
	C3377.519531,1929.532227 3380.725098,1931.207642 3383.849365,1933.022461 
	C3386.725098,1934.692749 3389.376953,1936.802856 3392.366211,1938.212769 
	C3401.797363,1942.661011 3409.713623,1936.929688 3408.982666,1926.118408 
	C3408.066406,1912.567871 3406.881836,1899.035278 3405.741699,1884.589478 
	C3408.294434,1885.416382 3409.910889,1885.695068 3411.291260,1886.422363 
	C3451.159668,1907.430054 3493.690918,1911.332520 3537.527588,1905.526001 
	C3579.133545,1900.014648 3618.460938,1886.773438 3656.244873,1868.760010 
	C3722.206543,1837.312988 3779.626953,1793.879395 3831.437744,1742.825928 
	C3866.379150,1708.395142 3897.335205,1670.537964 3925.660400,1630.466064 
	C3960.310547,1581.446045 3980.305176,1527.041992 3985.401123,1467.424561 
	C3988.129639,1435.505127 3986.532471,1403.563232 3979.907227,1372.019775 
	C3968.942627,1319.815796 3947.497314,1272.567749 3911.430664,1233.007080 
	C3857.199707,1173.522583 3788.992432,1143.972534 3708.730713,1142.224609 
	C3695.130127,1141.928467 3681.491699,1143.346802 3667.756836,1142.333008 
	C3668.131592,1140.374878 3668.407959,1138.391846 3668.895996,1136.462402 
	C3676.121338,1107.891479 3679.432861,1078.780762 3679.272705,1049.406982 
	C3679.123779,1022.071716 3676.180908,994.923523 3670.006592,968.193787 
	C3652.357178,891.787720 3616.653320,825.547974 3558.102783,772.778442 
	C3489.455811,710.909119 3408.944824,683.256042 3316.474609,691.660889 
	C3275.835693,695.354675 3237.449951,706.913269 3200.880371,724.626099 
	C3149.675049,749.428101 3106.466064,784.479858 3070.757324,828.619690 
	C3036.992920,870.355713 3012.849121,917.110962 2999.719727,969.353088 
	C2989.562988,1009.766785 2982.176758,1050.668579 2977.651611,1092.098145 
	C2977.404297,1094.361206 2975.527100,1096.446167 2973.537598,1097.496216 
	C2935.474365,1055.397827 2890.929199,1022.069519 2838.864990,999.291199 
	C2758.404541,964.089478 2676.138428,958.162048 2592.404785,986.393005 
	C2573.888916,992.635559 2556.193359,1001.310852 2537.294922,1009.210999 
	C2535.846436,1007.953369 2533.545410,1006.094971 2531.399414,1004.072327 
	C2422.855225,901.764954 2301.249268,818.561096 2166.291504,755.029053 
	C1987.114014,670.680420 1798.309937,627.027344 1600.445801,622.412537 
	C1530.374390,620.778259 1460.560059,624.732971 1391.012451,633.638550 
	C1310.209473,643.985352 1230.801514,660.798767 1153.214478,685.590027 
	C847.443359,783.292786 601.900330,963.660278 418.559631,1226.848267 
	C261.544098,1452.246338 180.274841,1703.716553 170.560486,1978.139038 
	C166.965012,2079.708496 174.970215,2180.540283 193.636505,2280.515381 
	C217.628433,2409.013916 258.456116,2531.883545 317.381012,2648.538574 
	C438.324799,2887.973877 613.147949,3078.238281 841.658081,3218.674072 
	C1010.046692,3322.160400 1192.789307,3385.858398 1388.691528,3411.729248 
	C1453.200317,3420.248291 1518.053345,3423.609619 1583.113647,3423.602539 
	C2038.738403,3423.552002 2494.363281,3423.575928 2949.988037,3423.575928 
	C2954.654297,3423.575928 2959.322754,3423.668701 2963.985352,3423.538574 
	C2966.173096,3423.477783 2968.348877,3422.988770 2971.258545,3422.595215 
	C2971.258545,3417.736328 2971.258301,3413.455811 2971.258301,3409.175537 
	C2971.257080,3180.196533 2971.253662,2951.217529 2971.270264,2722.238525 
	C2971.270752,2716.243164 2971.494141,2710.248047 2973.039062,2704.847656 
	C2992.821533,2721.711426 3015.328613,2733.498779 3040.160889,2741.007568 
	C3058.596191,2746.581543 3077.418701,2748.885498 3096.358398,2745.196533 
	C3141.535156,2736.396484 3171.999023,2689.466064 3163.099609,2643.392822 
	C3157.668213,2615.273438 3140.359131,2596.661377 3115.595459,2584.232666 
	C3091.216309,2571.997314 3065.025146,2568.489990 3038.057617,2569.087891 
	C3017.566895,2569.542480 2997.871826,2573.920410 2977.563721,2579.755127 
z"/>
<path fill="#DB350F" opacity="1.000000" stroke="none" 
	d="
M2971.613281,2704.252686 
	C2971.494141,2710.248047 2971.270752,2716.243164 2971.270264,2722.238525 
	C2971.253662,2951.217529 2971.257080,3180.196533 2971.258301,3409.175537 
	C2971.258301,3413.455811 2971.258545,3417.736328 2971.258545,3422.595215 
	C2968.348877,3422.988770 2966.173096,3423.477783 2963.985352,3423.538574 
	C2959.322754,3423.668701 2954.654297,3423.575928 2949.988037,3423.575928 
	C2494.363281,3423.575928 2038.738403,3423.552002 1583.113647,3423.602539 
	C1518.053345,3423.609619 1453.200317,3420.248291 1388.691528,3411.729248 
	C1192.789307,3385.858398 1010.046692,3322.160400 841.658081,3218.674072 
	C613.147949,3078.238281 438.324799,2887.973877 317.381012,2648.538574 
	C258.456116,2531.883545 217.628433,2409.013916 193.636505,2280.515381 
	C174.970215,2180.540283 166.965012,2079.708496 170.560486,1978.139038 
	C180.274841,1703.716553 261.544098,1452.246338 418.559631,1226.848267 
	C601.900330,963.660278 847.443359,783.292786 1153.214478,685.590027 
	C1230.801514,660.798767 1310.209473,643.985352 1391.012451,633.638550 
	C1460.560059,624.732971 1530.374390,620.778259 1600.445801,622.412537 
	C1798.309937,627.027344 1987.114014,670.680420 2166.291504,755.029053 
	C2301.249268,818.561096 2422.855225,901.764954 2531.399414,1004.072327 
	C2533.545410,1006.094971 2535.846436,1007.953369 2537.294922,1009.210999 
	C2556.193359,1001.310852 2573.888916,992.635559 2592.404785,986.393005 
	C2676.138428,958.162048 2758.404541,964.089478 2838.864990,999.291199 
	C2890.929199,1022.069519 2935.474365,1055.397827 2974.183838,1098.604248 
	C2979.646973,1105.212646 2984.683350,1110.537476 2989.246094,1116.241089 
	C3023.594727,1159.178589 3048.258545,1207.132324 3061.836914,1260.421509 
	C3071.598633,1298.733521 3078.498779,1337.653442 3082.191162,1377.070679 
	C3084.203857,1398.556152 3086.874756,1420.033081 3087.627197,1441.570312 
	C3088.568359,1468.507690 3087.998291,1495.504761 3087.759277,1522.473145 
	C3087.665283,1533.083618 3086.703369,1543.686279 3085.928711,1555.068359 
	C3085.239746,1559.137207 3084.613770,1562.416138 3084.299316,1565.724854 
	C3079.237549,1618.959351 3068.842041,1671.104248 3051.729980,1721.794434 
	C3032.826172,1777.793701 3006.903320,1830.060059 2967.722656,1874.933716 
	C2963.785645,1879.442749 2964.250000,1883.840698 2964.610107,1888.799927 
	C2966.395020,1913.378052 2969.366211,1937.946655 2969.639893,1962.544067 
	C2970.628906,2051.494385 2970.712891,2140.455078 2971.079834,2229.412109 
	C2971.090576,2232.026855 2970.444824,2234.644287 2969.514648,2236.625977 
	C2967.216553,2227.173828 2965.583252,2218.341064 2963.788574,2209.540771 
	C2952.552246,2154.447998 2935.773926,2101.249268 2909.184570,2051.475098 
	C2901.207520,2036.541870 2892.672119,2021.910278 2882.110840,2008.237793 
	C2874.007812,2010.151611 2866.351807,2011.959961 2858.031250,2013.925171 
	C2859.581055,2016.634888 2860.412598,2018.426025 2861.538330,2020.007568 
	C2894.633789,2066.506348 2915.754395,2118.359863 2930.374756,2173.178467 
	C2945.464844,2229.758545 2952.894531,2287.499756 2955.552246,2345.812500 
	C2958.453125,2409.459961 2956.423340,2473.054688 2949.659180,2536.447266 
	C2948.472656,2547.564941 2946.782227,2558.628418 2945.048828,2571.814453 
	C2941.407227,2568.183105 2939.134033,2566.024658 2936.980713,2563.752930 
	C2912.715576,2538.153809 2883.591797,2520.922852 2849.097656,2513.208984 
	C2827.500244,2508.378906 2806.164307,2508.841309 2785.365723,2517.504150 
	C2746.369629,2533.746338 2730.301514,2580.547363 2736.967285,2616.861572 
	C2742.444824,2646.702393 2761.656006,2666.050537 2788.579346,2677.319580 
	C2830.658691,2694.933838 2873.397949,2695.300537 2916.057861,2678.530518 
	C2918.365479,2677.623535 2920.745361,2676.900391 2924.048340,2675.761963 
	C2923.758789,2678.442871 2923.731201,2680.053467 2923.395996,2681.597168 
	C2919.299316,2700.463623 2914.777344,2719.246582 2911.097412,2738.192871 
	C2900.144043,2794.584473 2892.875488,2851.279541 2897.924805,2908.942383 
	C2900.555176,2938.980713 2906.332031,2968.288330 2917.763184,2996.250000 
	C2921.909668,3006.392334 2927.004883,3016.196777 2932.313721,3025.798096 
	C2936.525879,3033.415283 2942.972168,3034.774414 2950.067383,3030.619873 
	C2956.408691,3026.906494 2957.922119,3020.873779 2954.333008,3013.351807 
	C2953.473633,3011.550781 2952.252930,3009.911621 2951.486084,3008.077881 
	C2945.461914,2993.673584 2938.283447,2979.613037 2933.758789,2964.746826 
	C2919.439453,2917.697998 2919.796387,2869.440186 2924.667969,2821.114258 
	C2929.048584,2777.656982 2937.675049,2734.905762 2947.953857,2692.484619 
	C2948.749512,2689.200928 2949.701416,2685.955322 2950.767090,2682.001709 
	C2958.481689,2690.236328 2965.047607,2697.244385 2971.613281,2704.252686 
M2385.862061,1981.258423 
	C2383.461182,1934.921631 2377.894775,1888.945312 2367.234619,1843.797852 
	C2314.312744,1619.661011 2190.256836,1445.844604 1994.385620,1325.007080 
	C1852.950928,1237.752686 1697.793579,1200.171631 1531.744873,1207.482788 
	C1479.660889,1209.776123 1428.259888,1216.807373 1377.683105,1229.328491 
	C1196.771484,1274.116089 1047.472046,1369.089233 931.354126,1514.674805 
	C818.823425,1655.762695 760.969299,1817.650757 754.489075,1997.839355 
	C752.265747,2059.661865 757.467041,2121.019043 769.656677,2181.720215 
	C803.832947,2351.909180 883.584229,2497.336914 1009.768250,2616.279785 
	C1152.336914,2750.666748 1322.496582,2823.864258 1517.866699,2837.419434 
	C1608.311279,2843.694580 1697.773560,2835.364014 1785.104980,2810.539795 
	C2017.078613,2744.600342 2188.651611,2603.945557 2299.809082,2390.168457 
	C2344.354248,2304.499756 2370.360352,2212.816650 2381.581787,2116.963867 
	C2386.785645,2072.513428 2387.615967,2027.890503 2385.862061,1981.258423 
M2551.509766,1210.636963 
	C2556.339111,1203.455444 2560.760498,1195.956055 2566.066895,1189.145996 
	C2592.316406,1155.457031 2624.328125,1129.948486 2666.575195,1119.075806 
	C2677.208008,1116.339233 2685.956787,1110.359131 2692.624756,1101.549561 
	C2709.851318,1078.791260 2703.227783,1049.371460 2677.885498,1036.304688 
	C2666.743896,1030.559814 2655.163086,1029.636353 2642.986572,1032.900269 
	C2618.005615,1039.596313 2594.709961,1049.997070 2572.920898,1063.840576 
	C2479.036377,1123.489258 2423.050049,1236.189819 2432.547852,1346.971436 
	C2433.682861,1360.209473 2435.771729,1373.430664 2438.404541,1386.460449 
	C2442.664795,1407.545288 2460.549805,1423.173584 2480.649902,1424.410034 
	C2500.808594,1425.650269 2517.794922,1413.828979 2524.566406,1393.663330 
	C2526.920410,1386.653198 2527.933105,1379.506104 2526.533936,1372.036621 
	C2524.818604,1362.880249 2523.068359,1353.682251 2522.213867,1344.421021 
	C2517.865479,1297.297363 2526.859131,1252.964233 2551.509766,1210.636963 
z"/>
<path fill="#FBC133" opacity="1.000000" stroke="none" 
	d="
M3086.136719,1554.292480 
	C3086.703369,1543.686279 3087.665283,1533.083618 3087.759277,1522.473145 
	C3087.998291,1495.504761 3088.568359,1468.507690 3087.627197,1441.570312 
	C3086.874756,1420.033081 3084.203857,1398.556152 3082.191162,1377.070679 
	C3078.498779,1337.653442 3071.598633,1298.733521 3061.836914,1260.421509 
	C3048.258545,1207.132324 3023.594727,1159.178589 2989.246094,1116.241089 
	C2984.683350,1110.537476 2979.646973,1105.212646 2974.619629,1099.163330 
	C2975.527100,1096.446167 2977.404297,1094.361206 2977.651611,1092.098145 
	C2982.176758,1050.668579 2989.562988,1009.766785 2999.719727,969.353088 
	C3012.849121,917.110962 3036.992920,870.355713 3070.757324,828.619690 
	C3106.466064,784.479858 3149.675049,749.428101 3200.880371,724.626099 
	C3237.449951,706.913269 3275.835693,695.354675 3316.474609,691.660889 
	C3408.944824,683.256042 3489.455811,710.909119 3558.102783,772.778442 
	C3616.653320,825.547974 3652.357178,891.787720 3670.006592,968.193787 
	C3676.180908,994.923523 3679.123779,1022.071716 3679.272705,1049.406982 
	C3679.432861,1078.780762 3676.121338,1107.891479 3668.895996,1136.462402 
	C3668.407959,1138.391846 3668.131592,1140.374878 3667.447021,1143.798096 
	C3665.217773,1151.942505 3663.328369,1158.630615 3661.372559,1165.299194 
	C3656.347168,1182.436646 3651.292236,1199.565552 3645.827637,1217.238159 
	C3630.751709,1258.230957 3614.728516,1298.096802 3594.740967,1336.271729 
	C3594.165527,1337.370850 3594.212891,1338.796143 3594.012207,1340.052612 
	C3594.054688,1340.035889 3594.062988,1339.945068 3593.481201,1340.170166 
	C3592.624756,1341.172607 3592.349854,1341.950195 3591.665527,1343.235962 
	C3570.541748,1381.276733 3547.767334,1417.489014 3521.453613,1452.173096 
	C3505.759277,1470.411011 3490.628418,1488.270386 3474.958008,1506.466309 
	C3463.038330,1517.465576 3451.958496,1528.472412 3440.219727,1538.724854 
	C3408.547119,1566.387329 3374.114746,1589.899902 3335.300049,1606.551514 
	C3326.771973,1610.210083 3318.104492,1613.543823 3308.694336,1617.151489 
	C3305.617676,1617.779419 3303.313965,1618.164917 3301.083252,1618.804688 
	C3272.030518,1627.137451 3242.595215,1630.772217 3212.448730,1626.330200 
	C3210.406982,1626.029175 3208.236816,1626.603149 3205.270020,1626.838013 
	C3206.646240,1630.513428 3207.561768,1633.294189 3208.712402,1635.973755 
	C3213.824219,1647.875000 3219.364502,1659.606689 3224.058594,1671.668823 
	C3229.011475,1684.395996 3222.517090,1692.176636 3209.076416,1690.089111 
	C3203.197266,1689.176147 3197.414062,1687.647705 3190.869629,1686.194092 
	C3182.853271,1684.196655 3175.554199,1682.403809 3167.502441,1680.346436 
	C3160.971436,1678.596680 3155.135498,1677.303467 3149.427002,1675.586304 
	C3137.512451,1672.002686 3134.781494,1661.297852 3143.581787,1652.697144 
	C3146.178711,1650.159302 3149.171143,1648.008057 3152.085693,1645.817017 
	C3160.572754,1639.436157 3169.149902,1633.174561 3177.604980,1626.751831 
	C3179.780029,1625.099609 3181.634033,1623.025146 3184.140137,1620.670654 
	C3181.841064,1619.540527 3180.724365,1618.821411 3179.503418,1618.416504 
	C3156.199951,1610.688721 3135.409424,1598.362305 3116.634277,1582.813110 
	C3105.933838,1573.951416 3096.268311,1563.840820 3086.136719,1554.292480 
M3226.098877,796.996948 
	C3161.905029,833.924072 3116.469238,887.130981 3089.403320,955.864868 
	C3070.630615,1003.539001 3064.651855,1052.975342 3071.488525,1103.877686 
	C3073.395508,1118.075195 3081.049561,1128.636108 3092.330078,1136.570312 
	C3110.541748,1149.379761 3132.345947,1146.737061 3147.206543,1130.130493 
	C3157.838135,1118.249512 3161.513916,1104.266968 3159.302246,1088.425781 
	C3156.287354,1066.828735 3157.144287,1045.240723 3161.040039,1023.810730 
	C3168.554688,982.474548 3186.394043,946.170166 3214.922607,915.298584 
	C3243.488525,884.386475 3277.381104,862.822815 3319.679932,855.816650 
	C3339.115234,852.597412 3352.108887,840.926941 3358.258301,822.249939 
	C3369.017090,789.572449 3335.772461,763.584290 3311.930420,767.272461 
	C3281.900391,771.917969 3253.958984,781.914612 3226.098877,796.996948 
z"/>
<path fill="#4BD8D9" opacity="1.000000" stroke="none" 
	d="
M3646.249023,1216.697754 
	C3651.292236,1199.565552 3656.347168,1182.436646 3661.372559,1165.299194 
	C3663.328369,1158.630615 3665.217773,1151.942505 3667.503906,1144.618164 
	C3681.491699,1143.346802 3695.130127,1141.928467 3708.730713,1142.224609 
	C3788.992432,1143.972534 3857.199707,1173.522583 3911.430664,1233.007080 
	C3947.497314,1272.567749 3968.942627,1319.815796 3979.907227,1372.019775 
	C3986.532471,1403.563232 3988.129639,1435.505127 3985.401123,1467.424561 
	C3980.305176,1527.041992 3960.310547,1581.446045 3925.660400,1630.466064 
	C3897.335205,1670.537964 3866.379150,1708.395142 3831.437744,1742.825928 
	C3779.626953,1793.879395 3722.206543,1837.312988 3656.244873,1868.760010 
	C3618.460938,1886.773438 3579.133545,1900.014648 3537.527588,1905.526001 
	C3493.690918,1911.332520 3451.159668,1907.430054 3411.291260,1886.422363 
	C3409.910889,1885.695068 3408.294434,1885.416382 3405.741699,1884.589478 
	C3406.881836,1899.035278 3408.066406,1912.567871 3408.982666,1926.118408 
	C3409.713623,1936.929688 3401.797363,1942.661011 3392.366211,1938.212769 
	C3389.376953,1936.802856 3386.725098,1934.692749 3383.849365,1933.022461 
	C3380.725098,1931.207642 3377.519531,1929.532227 3373.429199,1927.053223 
	C3365.923828,1922.101929 3359.338623,1917.893433 3352.422363,1913.079956 
	C3350.587158,1911.192017 3349.179443,1909.768555 3347.559082,1908.654541 
	C3343.618408,1905.944946 3339.579102,1903.155884 3340.493652,1897.622437 
	C3341.473877,1891.691772 3345.695068,1888.834595 3351.254150,1887.142334 
	C3361.123047,1884.138550 3370.878418,1880.758423 3380.660400,1877.473633 
	C3383.697021,1876.453857 3386.666504,1875.233521 3390.737793,1873.702515 
	C3387.360352,1870.485718 3385.044434,1868.173218 3382.616211,1865.984863 
	C3364.069580,1849.270386 3349.593262,1829.526611 3338.497803,1807.204346 
	C3318.250488,1766.470581 3310.281494,1722.782715 3308.370605,1677.893677 
	C3307.509277,1657.657593 3309.050049,1637.319214 3309.501221,1617.027222 
	C3318.104492,1613.543823 3326.771973,1610.210083 3335.300049,1606.551514 
	C3374.114746,1589.899902 3408.547119,1566.387329 3440.219727,1538.724854 
	C3451.958496,1528.472412 3463.038330,1517.465576 3475.842529,1506.569092 
	C3488.193359,1506.625610 3496.822754,1501.742310 3504.735352,1494.691284 
	C3517.647217,1483.185181 3519.918213,1467.563843 3522.017090,1451.794434 
	C3547.767334,1417.489014 3570.541748,1381.276733 3592.197266,1342.911499 
	C3593.446777,1341.367554 3593.754883,1340.656250 3594.062988,1339.945068 
	C3594.062988,1339.945068 3594.054688,1340.035889 3594.724121,1340.098999 
	C3610.551025,1329.280029 3626.031250,1318.967651 3643.169922,1311.331787 
	C3676.439453,1296.509399 3710.838623,1290.043823 3747.291748,1295.348145 
	C3754.612061,1296.413086 3762.801025,1295.537354 3769.901855,1293.337280 
	C3792.042969,1286.477783 3804.634277,1264.540405 3800.066650,1244.585327 
	C3795.892578,1226.347168 3784.689209,1214.335938 3766.683594,1209.928223 
	C3743.480957,1204.248413 3719.718506,1204.353271 3696.194336,1207.274780 
	C3679.414551,1209.358765 3662.888428,1213.483643 3646.249023,1216.697754 
z"/>
<path fill="#070404" opacity="1.000000" stroke="none" 
	d="
M3352.753418,1913.685059 
	C3359.338623,1917.893433 3365.923828,1922.101929 3372.749756,1926.964600 
	C3346.876465,1954.395142 3323.810059,1983.738647 3301.436279,2013.599731 
	C3200.608643,2148.168457 3110.482666,2289.454834 3035.179932,2439.962158 
	C3012.836426,2484.619873 2992.861084,2530.332031 2976.146484,2578.792236 
	C2976.789307,2580.239502 2977.697998,2580.423584 2978.606689,2580.607666 
	C2997.871826,2573.920410 3017.566895,2569.542480 3038.057617,2569.087891 
	C3065.025146,2568.489990 3091.216309,2571.997314 3115.595459,2584.232666 
	C3140.359131,2596.661377 3157.668213,2615.273438 3163.099609,2643.392822 
	C3171.999023,2689.466064 3141.535156,2736.396484 3096.358398,2745.196533 
	C3077.418701,2748.885498 3058.596191,2746.581543 3040.160889,2741.007568 
	C3015.328613,2733.498779 2992.821533,2721.711426 2972.326172,2704.550293 
	C2965.047607,2697.244385 2958.481689,2690.236328 2950.767090,2682.001709 
	C2949.701416,2685.955322 2948.749512,2689.200928 2947.953857,2692.484619 
	C2937.675049,2734.905762 2929.048584,2777.656982 2924.667969,2821.114258 
	C2919.796387,2869.440186 2919.439453,2917.697998 2933.758789,2964.746826 
	C2938.283447,2979.613037 2945.461914,2993.673584 2951.486084,3008.077881 
	C2952.252930,3009.911621 2953.473633,3011.550781 2954.333008,3013.351807 
	C2957.922119,3020.873779 2956.408691,3026.906494 2950.067383,3030.619873 
	C2942.972168,3034.774414 2936.525879,3033.415283 2932.313721,3025.798096 
	C2927.004883,3016.196777 2921.909668,3006.392334 2917.763184,2996.250000 
	C2906.332031,2968.288330 2900.555176,2938.980713 2897.924805,2908.942383 
	C2892.875488,2851.279541 2900.144043,2794.584473 2911.097412,2738.192871 
	C2914.777344,2719.246582 2919.299316,2700.463623 2923.395996,2681.597168 
	C2923.731201,2680.053467 2923.758789,2678.442871 2924.048340,2675.761963 
	C2920.745361,2676.900391 2918.365479,2677.623535 2916.057861,2678.530518 
	C2873.397949,2695.300537 2830.658691,2694.933838 2788.579346,2677.319580 
	C2761.656006,2666.050537 2742.444824,2646.702393 2736.967285,2616.861572 
	C2730.301514,2580.547363 2746.369629,2533.746338 2785.365723,2517.504150 
	C2806.164307,2508.841309 2827.500244,2508.378906 2849.097656,2513.208984 
	C2883.591797,2520.922852 2912.715576,2538.153809 2936.980713,2563.752930 
	C2939.134033,2566.024658 2941.407227,2568.183105 2945.048828,2571.814453 
	C2946.782227,2558.628418 2948.472656,2547.564941 2949.659180,2536.447266 
	C2956.423340,2473.054688 2958.453125,2409.459961 2955.552246,2345.812500 
	C2952.894531,2287.499756 2945.464844,2229.758545 2930.374756,2173.178467 
	C2915.754395,2118.359863 2894.633789,2066.506348 2861.538330,2020.007568 
	C2860.412598,2018.426025 2859.581055,2016.634888 2858.031250,2013.925171 
	C2866.351807,2011.959961 2874.007812,2010.151611 2882.110840,2008.237793 
	C2892.672119,2021.910278 2901.207520,2036.541870 2909.184570,2051.475098 
	C2935.773926,2101.249268 2952.552246,2154.447998 2963.788574,2209.540771 
	C2965.583252,2218.341064 2967.216553,2227.173828 2969.641602,2237.320312 
	C2970.721191,2243.296387 2970.963623,2247.956543 2971.467285,2252.588623 
	C2973.554199,2271.785400 2976.161377,2290.937012 2977.765625,2310.172852 
	C2981.117676,2350.370361 2982.459961,2390.654053 2981.436035,2430.998047 
	C2981.386963,2432.928711 2981.651123,2434.867432 2981.769531,2436.802246 
	C2983.984375,2433.394531 2985.063232,2429.706787 2985.975586,2425.978271 
	C3018.310059,2293.836914 3050.633545,2161.692871 3082.948242,2029.546631 
	C3111.390381,1913.236450 3139.820312,1796.923096 3168.255371,1680.611084 
	C3175.554199,1682.403809 3182.853271,1684.196655 3190.551025,1686.853149 
	C3185.015137,1712.266235 3179.135498,1736.828979 3173.136230,1761.362427 
	C3136.088867,1912.861328 3099.108643,2064.376465 3061.908203,2215.837646 
	C3044.945801,2284.898438 3027.516113,2353.844727 3010.376465,2422.862305 
	C3009.675049,2425.687256 3009.768555,2428.709717 3009.494385,2431.609131 
	C3010.468262,2431.609131 3011.004395,2431.728271 3011.080566,2431.591797 
	C3012.839111,2428.430176 3014.624023,2425.279541 3016.253418,2422.050781 
	C3068.212402,2319.095459 3127.447266,2220.422607 3191.872559,2124.852051 
	C3241.408203,2051.369629 3292.543945,1979.057983 3352.753418,1913.685059 
M2969.464111,2617.863037 
	C2955.451416,2629.528809 2955.844727,2651.539307 2970.833740,2668.393311 
	C2974.397217,2672.736328 2977.560059,2677.498047 2981.591064,2681.352051 
	C3002.258789,2701.111084 3026.718750,2714.124756 3054.665283,2719.887207 
	C3064.304443,2721.874756 3074.512451,2722.489990 3084.342773,2721.867920 
	C3103.072021,2720.682861 3118.221436,2711.950439 3127.558594,2695.415283 
	C3146.222656,2662.364014 3140.093262,2623.660645 3099.555664,2605.748779 
	C3096.823975,2604.541992 3094.096436,2603.264648 3091.255615,2602.377197 
	C3059.907959,2592.583008 3028.462158,2592.074951 2997.113281,2602.141357 
	C2987.322266,2605.285400 2977.781250,2609.319336 2969.464111,2617.863037 
M2814.181152,2661.254395 
	C2838.132568,2667.735840 2862.199463,2667.706055 2886.218018,2661.953369 
	C2901.864258,2658.205811 2916.849854,2652.809570 2928.554443,2640.956543 
	C2935.858398,2633.560547 2938.684570,2624.974854 2936.548096,2614.569580 
	C2934.252686,2603.388672 2928.422607,2594.237305 2921.018555,2586.010254 
	C2900.821289,2563.568359 2875.700684,2548.991211 2846.446533,2542.350098 
	C2835.621094,2539.892822 2823.938477,2539.411621 2812.845215,2540.356689 
	C2796.250244,2541.770752 2782.687500,2549.935303 2772.871338,2563.846436 
	C2753.331787,2591.537842 2758.674561,2629.316895 2785.743652,2648.030762 
	C2793.789795,2653.593750 2803.635986,2656.552246 2814.181152,2661.254395 
z"/>
<path fill="#FFFFFF" opacity="1.000000" stroke="none" 
	d="
M2385.893555,1982.229492 
	C2387.615967,2027.890503 2386.785645,2072.513428 2381.581787,2116.963867 
	C2370.360352,2212.816650 2344.354248,2304.499756 2299.809082,2390.168457 
	C2188.651611,2603.945557 2017.078613,2744.600342 1785.104980,2810.539795 
	C1697.773560,2835.364014 1608.311279,2843.694580 1517.866699,2837.419434 
	C1322.496582,2823.864258 1152.336914,2750.666748 1009.768250,2616.279785 
	C883.584229,2497.336914 803.832947,2351.909180 769.656677,2181.720215 
	C757.467041,2121.019043 752.265747,2059.661865 754.489075,1997.839355 
	C760.969299,1817.650757 818.823425,1655.762695 931.354126,1514.674805 
	C1047.472046,1369.089233 1196.771484,1274.116089 1377.683105,1229.328491 
	C1428.259888,1216.807373 1479.660889,1209.776123 1531.744873,1207.482788 
	C1697.793579,1200.171631 1852.950928,1237.752686 1994.385620,1325.007080 
	C2190.256836,1445.844604 2314.312744,1619.661011 2367.234619,1843.797852 
	C2377.894775,1888.945312 2383.461182,1934.921631 2385.893555,1982.229492 
z"/>
<path fill="#FEFDFD" opacity="1.000000" stroke="none" 
	d="
M3167.502686,1680.346436 
	C3139.820312,1796.923096 3111.390381,1913.236450 3082.948242,2029.546631 
	C3050.633545,2161.692871 3018.310059,2293.836914 2985.975586,2425.978271 
	C2985.063232,2429.706787 2983.984375,2433.394531 2981.769531,2436.802246 
	C2981.651123,2434.867432 2981.386963,2432.928711 2981.436035,2430.998047 
	C2982.459961,2390.654053 2981.117676,2350.370361 2977.765625,2310.172852 
	C2976.161377,2290.937012 2973.554199,2271.785400 2971.467285,2252.588623 
	C2970.963623,2247.956543 2970.721191,2243.296387 2970.231934,2237.954834 
	C2970.444824,2234.644287 2971.090576,2232.026855 2971.079834,2229.412109 
	C2970.712891,2140.455078 2970.628906,2051.494385 2969.639893,1962.544067 
	C2969.366211,1937.946655 2966.395020,1913.378052 2964.610107,1888.799927 
	C2964.250000,1883.840698 2963.785645,1879.442749 2967.722656,1874.933716 
	C3006.903320,1830.060059 3032.826172,1777.793701 3051.729980,1721.794434 
	C3068.842041,1671.104248 3079.237549,1618.959351 3084.299316,1565.724854 
	C3084.613770,1562.416138 3085.239746,1559.137207 3085.928711,1555.068359 
	C3096.268311,1563.840820 3105.933838,1573.951416 3116.634277,1582.813110 
	C3135.409424,1598.362305 3156.199951,1610.688721 3179.503418,1618.416504 
	C3180.724365,1618.821411 3181.841064,1619.540527 3184.140137,1620.670654 
	C3181.634033,1623.025146 3179.780029,1625.099609 3177.604980,1626.751831 
	C3169.149902,1633.174561 3160.572754,1639.436157 3152.085693,1645.817017 
	C3149.171143,1648.008057 3146.178711,1650.159302 3143.581787,1652.697144 
	C3134.781494,1661.297852 3137.512451,1672.002686 3149.427002,1675.586304 
	C3155.135498,1677.303467 3160.971436,1678.596680 3167.502686,1680.346436 
z"/>
<path fill="#FEFDFC" opacity="1.000000" stroke="none" 
	d="
M2551.116699,1211.253174 
	C2526.859131,1252.964233 2517.865479,1297.297363 2522.213867,1344.421021 
	C2523.068359,1353.682251 2524.818604,1362.880249 2526.533936,1372.036621 
	C2527.933105,1379.506104 2526.920410,1386.653198 2524.566406,1393.663330 
	C2517.794922,1413.828979 2500.808594,1425.650269 2480.649902,1424.410034 
	C2460.549805,1423.173584 2442.664795,1407.545288 2438.404541,1386.460449 
	C2435.771729,1373.430664 2433.682861,1360.209473 2432.547852,1346.971436 
	C2423.050049,1236.189819 2479.036377,1123.489258 2572.920898,1063.840576 
	C2594.709961,1049.997070 2618.005615,1039.596313 2642.986572,1032.900269 
	C2655.163086,1029.636353 2666.743896,1030.559814 2677.885498,1036.304688 
	C2703.227783,1049.371460 2709.851318,1078.791260 2692.624756,1101.549561 
	C2685.956787,1110.359131 2677.208008,1116.339233 2666.575195,1119.075806 
	C2624.328125,1129.948486 2592.316406,1155.457031 2566.066895,1189.145996 
	C2560.760498,1195.956055 2556.339111,1203.455444 2551.116699,1211.253174 
z"/>
<path fill="#FDFEFD" opacity="1.000000" stroke="none" 
	d="
M3352.422363,1913.079956 
	C3292.543945,1979.057983 3241.408203,2051.369629 3191.872559,2124.852051 
	C3127.447266,2220.422607 3068.212402,2319.095459 3016.253418,2422.050781 
	C3014.624023,2425.279541 3012.839111,2428.430176 3011.080566,2431.591797 
	C3011.004395,2431.728271 3010.468262,2431.609131 3009.494385,2431.609131 
	C3009.768555,2428.709717 3009.675049,2425.687256 3010.376465,2422.862305 
	C3027.516113,2353.844727 3044.945801,2284.898438 3061.908203,2215.837646 
	C3099.108643,2064.376465 3136.088867,1912.861328 3173.136230,1761.362427 
	C3179.135498,1736.828979 3185.015137,1712.266235 3191.268555,1687.057861 
	C3197.414062,1687.647705 3203.197266,1689.176147 3209.076416,1690.089111 
	C3222.517090,1692.176636 3229.011475,1684.395996 3224.058594,1671.668823 
	C3219.364502,1659.606689 3213.824219,1647.875000 3208.712402,1635.973755 
	C3207.561768,1633.294189 3206.646240,1630.513428 3205.270020,1626.838013 
	C3208.236816,1626.603149 3210.406982,1626.029175 3212.448730,1626.330200 
	C3242.595215,1630.772217 3272.030518,1627.137451 3301.083252,1618.804688 
	C3303.313965,1618.164917 3305.617676,1617.779419 3308.694336,1617.151489 
	C3309.050049,1637.319214 3307.509277,1657.657593 3308.370605,1677.893677 
	C3310.281494,1722.782715 3318.250488,1766.470581 3338.497803,1807.204346 
	C3349.593262,1829.526611 3364.069580,1849.270386 3382.616211,1865.984863 
	C3385.044434,1868.173218 3387.360352,1870.485718 3390.737793,1873.702515 
	C3386.666504,1875.233521 3383.697021,1876.453857 3380.660400,1877.473633 
	C3370.878418,1880.758423 3361.123047,1884.138550 3351.254150,1887.142334 
	C3345.695068,1888.834595 3341.473877,1891.691772 3340.493652,1897.622437 
	C3339.579102,1903.155884 3343.618408,1905.944946 3347.559082,1908.654541 
	C3349.179443,1909.768555 3350.587158,1911.192017 3352.422363,1913.079956 
z"/>
<path fill="#FFFEFC" opacity="1.000000" stroke="none" 
	d="
M3226.746094,796.640564 
	C3253.958984,781.914612 3281.900391,771.917969 3311.930420,767.272461 
	C3335.772461,763.584290 3369.017090,789.572449 3358.258301,822.249939 
	C3352.108887,840.926941 3339.115234,852.597412 3319.679932,855.816650 
	C3277.381104,862.822815 3243.488525,884.386475 3214.922607,915.298584 
	C3186.394043,946.170166 3168.554688,982.474548 3161.040039,1023.810730 
	C3157.144287,1045.240723 3156.287354,1066.828735 3159.302246,1088.425781 
	C3161.513916,1104.266968 3157.838135,1118.249512 3147.206543,1130.130493 
	C3132.345947,1146.737061 3110.541748,1149.379761 3092.330078,1136.570312 
	C3081.049561,1128.636108 3073.395508,1118.075195 3071.488525,1103.877686 
	C3064.651855,1052.975342 3070.630615,1003.539001 3089.403320,955.864868 
	C3116.469238,887.130981 3161.905029,833.924072 3226.746094,796.640564 
z"/>
<path fill="#FDFEFE" opacity="1.000000" stroke="none" 
	d="
M3645.827637,1217.238037 
	C3662.888428,1213.483643 3679.414551,1209.358765 3696.194336,1207.274780 
	C3719.718506,1204.353271 3743.480957,1204.248413 3766.683594,1209.928223 
	C3784.689209,1214.335938 3795.892578,1226.347168 3800.066650,1244.585327 
	C3804.634277,1264.540405 3792.042969,1286.477783 3769.901855,1293.337280 
	C3762.801025,1295.537354 3754.612061,1296.413086 3747.291748,1295.348145 
	C3710.838623,1290.043823 3676.439453,1296.509399 3643.169922,1311.331787 
	C3626.031250,1318.967651 3610.551025,1329.280029 3594.681641,1340.115723 
	C3594.212891,1338.796143 3594.165527,1337.370850 3594.740967,1336.271729 
	C3614.728516,1298.096802 3630.751709,1258.230957 3645.827637,1217.238037 
z"/>
<path fill="#F7FBF4" opacity="1.000000" stroke="none" 
	d="
M3521.453613,1452.173096 
	C3519.918213,1467.563843 3517.647217,1483.185181 3504.735352,1494.691284 
	C3496.822754,1501.742310 3488.193359,1506.625610 3476.381836,1506.232788 
	C3490.628418,1488.270386 3505.759277,1470.411011 3521.453613,1452.173096 
z"/>
<path fill="#FDFEFE" opacity="1.000000" stroke="none" 
	d="
M3593.481201,1340.170166 
	C3593.754883,1340.656250 3593.446777,1341.367554 3592.606934,1342.403198 
	C3592.349854,1341.950195 3592.624756,1341.172607 3593.481201,1340.170166 
z"/>
<path fill="#D9350F" opacity="1.000000" stroke="none" 
	d="
M2813.419189,2660.979492 
	C2803.635986,2656.552246 2793.789795,2653.593750 2785.743652,2648.030762 
	C2758.674561,2629.316895 2753.331787,2591.537842 2772.871338,2563.846436 
	C2782.687500,2549.935303 2796.250244,2541.770752 2812.845215,2540.356689 
	C2823.938477,2539.411621 2835.621094,2539.892822 2846.446533,2542.350098 
	C2875.700684,2548.991211 2900.821289,2563.568359 2921.018555,2586.010254 
	C2928.422607,2594.237305 2934.252686,2603.388672 2936.548096,2614.569580 
	C2938.684570,2624.974854 2935.858398,2633.560547 2928.554443,2640.956543 
	C2916.849854,2652.809570 2901.864258,2658.205811 2886.218018,2661.953369 
	C2862.199463,2667.706055 2838.132568,2667.735840 2813.419189,2660.979492 
z"/>
<path fill="#FDFDFD" opacity="1.000000" stroke="none" 
	d="
M2970.650391,2617.318115 
	C2977.781250,2609.319336 2987.322266,2605.285400 2997.113281,2602.141357 
	C3028.462158,2592.074951 3059.907959,2592.583008 3091.255615,2602.377197 
	C3094.096436,2603.264648 3096.823975,2604.541992 3099.555664,2605.748779 
	C3140.093262,2623.660645 3146.222656,2662.364014 3127.558594,2695.415283 
	C3118.221436,2711.950439 3103.072021,2720.682861 3084.342773,2721.867920 
	C3074.512451,2722.489990 3064.304443,2721.874756 3054.665283,2719.887207 
	C3026.718750,2714.124756 3002.258789,2701.111084 2981.591064,2681.352051 
	C2977.560059,2677.498047 2974.397217,2672.736328 2971.000977,2666.782715 
	C2970.995850,2649.220947 2970.822998,2633.269531 2970.650391,2617.318115 
z"/>
<path fill="#D2492A" opacity="1.000000" stroke="none" 
	d="
M2970.057129,2617.590576 
	C2970.822998,2633.269531 2970.995850,2649.220947 2970.766602,2666.127930 
	C2955.844727,2651.539307 2955.451416,2629.528809 2970.057129,2617.590576 
z"/>
<path fill="#FFFFFF" opacity="1.000000" stroke="none" 
	d="
M2978.085205,2580.181396 
	C2977.697998,2580.423584 2976.789307,2580.239502 2976.145264,2579.557861 
	C2976.794434,2579.291992 2977.179199,2579.523438 2978.085205,2580.181396 
z"/>
</svg>